<svg width="896" height="157" viewBox="0 0 896 157" fill="none" xmlns="http://www.w3.org/2000/svg">
<path d="M0.145938 23.6H22.7659L52.0939 99.572L81.2659 23.6H103.886L63.3259 125H40.7059L0.145938 23.6ZM209.232 89.744C202.836 111.74 182.556 127.964 158.532 127.964C129.204 127.964 105.336 104.096 105.336 74.768C105.336 45.596 129.204 21.884 158.532 21.884C185.52 21.884 215.004 44.504 210.948 82.256H129.516C132.48 97.076 144.492 107.684 158.532 107.684C169.92 107.684 180.06 100.664 184.896 89.744H209.232ZM130.452 63.536L186.144 63.38C182.088 50.588 171.168 42.164 158.532 42.164C145.74 42.164 134.664 50.744 130.452 63.536ZM292.888 65.72C292.888 51.212 283.528 41.54 269.644 41.54C255.76 41.54 246.4 51.212 246.4 65.72V125H223.78V65.72C223.78 39.2 242.188 21.416 269.644 21.26C297.1 21.416 315.508 39.2 315.508 65.72V125H292.888V65.72ZM437.461 75.08C437.461 104.252 415.309 127.964 385.981 127.964C356.653 127.964 332.785 104.252 332.785 75.08C332.785 45.752 356.653 21.884 382.861 21.884C397.057 21.884 410.317 29.216 414.841 34.832V0.199998H437.461V75.08ZM356.185 75.08C356.185 93.644 369.757 107.684 385.981 107.684C402.205 107.684 415.777 93.644 415.777 75.08C415.777 56.36 402.205 42.164 385.981 42.164C369.757 42.164 356.185 56.36 356.185 75.08ZM503.134 127.964C473.806 127.964 449.938 104.096 449.938 74.768C449.938 45.596 473.806 21.884 503.134 21.884C532.462 21.884 556.33 45.596 556.33 74.768C556.33 104.096 532.462 127.964 503.134 127.964ZM473.338 74.768C473.338 93.488 486.91 107.684 503.134 107.684C519.358 107.684 532.93 93.488 532.93 74.768C532.93 56.204 519.358 42.164 503.134 42.164C486.91 42.164 473.338 56.204 473.338 74.768Z" fill="#BE1E2D"/>
<path d="M568.839 74.768C568.839 45.596 590.991 21.884 620.319 21.884C649.647 21.884 673.515 45.596 673.515 74.768C673.515 104.096 649.647 127.964 623.439 127.964C609.243 127.964 595.983 120.632 591.459 115.016V156.2H568.839V74.768ZM590.523 74.768C590.523 93.488 604.095 107.684 620.319 107.684C636.543 107.684 650.115 93.488 650.115 74.768C650.115 56.204 636.543 42.164 620.319 42.164C604.095 42.164 590.523 56.204 590.523 74.768ZM787.547 125H764.927V115.016C760.403 120.632 747.143 127.964 732.947 127.964C706.739 127.964 682.871 104.096 682.871 74.768C682.871 45.596 706.739 21.884 736.067 21.884C765.395 21.884 787.547 45.596 787.547 74.768V125ZM706.271 74.768C706.271 93.488 719.843 107.684 736.067 107.684C752.291 107.684 765.863 93.488 765.863 74.768C765.863 56.204 752.291 42.164 736.067 42.164C719.843 42.164 706.271 56.204 706.271 74.768ZM792.181 23.6H815.269L844.129 96.764L873.301 23.6H895.921L843.193 156.2H820.573L833.053 125H832.741L792.181 23.6Z" fill="#353839"/>
</svg>
